<?xml version="1.0" encoding="utf-8"?>
<!-- Generator: Adobe Illustrator 19.0.0, SVG Export Plug-In . SVG Version: 6.00 Build 0)  -->
<svg version="1.1" id="Layer_1" xmlns="http://www.w3.org/2000/svg" xmlns:xlink="http://www.w3.org/1999/xlink" x="0px" y="0px"
	 viewBox="0 0 187 26" style="enable-background:new 0 0 187 26;" xml:space="preserve">
<style type="text/css">
	.st0{fill:#FAD101;}
	.st1{fill:#AFBD22;}
	.st2{fill:#00A5D5;}
	.st3{fill:#FFFFFF;}
	.st4{fill:#414042;}
</style>
<path id="XMLID_1_" class="st0" d="M21,19c0,1.1-0.9,2-2,2H2c-1.1,0-2-0.9-2-2V2c0-1.1,0.9-2,2-2h17c1.1,0,2,0.9,2,2V19z"/>
<path id="XMLID_4_" class="st1" d="M44,19c0,1.1-0.9,2-2,2H25c-1.1,0-2-0.9-2-2V2c0-1.1,0.9-2,2-2h17c1.1,0,2,0.9,2,2V19z"/>
<path id="XMLID_5_" class="st2" d="M67,19c0,1.1-0.9,2-2,2H48c-1.1,0-2-0.9-2-2V2c0-1.1,0.9-2,2-2h17c1.1,0,2,0.9,2,2V19z"/>
<g id="XMLID_27_">
	<path id="XMLID_65_" class="st3" d="M84.2,0v3.8H73.5v4.4h9.9v3.5h-9.9v5h11v3.8H69V0H84.2z"/>
	<path id="XMLID_63_" class="st3" d="M85,5.6h4.6l2.6,3.8l2.6-3.8h4.5l-4.8,6.9l5.4,7.8h-4.6l-3.1-4.6L89,20.3h-4.5l5.3-7.8L85,5.6z
		"/>
	<path id="XMLID_60_" class="st3" d="M103.8,5.6v1.9h0.1c0.5-0.8,1.1-1.4,1.9-1.7c0.8-0.4,1.6-0.5,2.5-0.5c1.2,0,2.2,0.2,3,0.7
		c0.8,0.4,1.5,1,2.1,1.7c0.5,0.7,1,1.6,1.2,2.5c0.3,1,0.4,2,0.4,3c0,1-0.1,1.9-0.4,2.9c-0.3,0.9-0.7,1.7-1.2,2.4
		c-0.5,0.7-1.2,1.3-2,1.7c-0.8,0.4-1.8,0.6-2.8,0.6c-0.9,0-1.8-0.2-2.5-0.5c-0.8-0.4-1.4-0.9-1.9-1.6H104v7h-4V5.6H103.8z
		 M109.1,17.3c0.4-0.3,0.8-0.6,1.1-1c0.3-0.4,0.5-0.9,0.6-1.5c0.1-0.6,0.2-1.1,0.2-1.7c0-0.6-0.1-1.2-0.2-1.7
		c-0.1-0.6-0.3-1.1-0.6-1.5c-0.3-0.4-0.7-0.8-1.1-1.1c-0.4-0.3-1-0.4-1.6-0.4c-0.7,0-1.2,0.1-1.7,0.4c-0.4,0.3-0.8,0.6-1.1,1.1
		c-0.3,0.4-0.5,0.9-0.6,1.5c-0.1,0.6-0.2,1.2-0.2,1.8c0,0.6,0.1,1.2,0.2,1.7c0.1,0.6,0.3,1.1,0.6,1.5c0.3,0.4,0.6,0.8,1.1,1
		c0.5,0.3,1,0.4,1.7,0.4C108.1,17.7,108.7,17.6,109.1,17.3z"/>
	<path id="XMLID_39_" class="st3" d="M120.4,16.8c0.6,0.6,1.5,0.9,2.6,0.9c0.8,0,1.5-0.2,2.1-0.6c0.6-0.4,1-0.8,1.1-1.3h3.6
		c-0.6,1.8-1.4,3-2.6,3.8c-1.2,0.8-2.6,1.1-4.3,1.1c-1.2,0-2.2-0.2-3.1-0.5c-0.9-0.4-1.7-0.9-2.4-1.6c-0.6-0.7-1.1-1.5-1.5-2.5
		c-0.4-0.9-0.5-2-0.5-3.1c0-1.1,0.2-2.1,0.5-3.1c0.4-0.9,0.9-1.8,1.5-2.5c0.7-0.7,1.5-1.2,2.4-1.6c0.9-0.4,1.9-0.6,3.1-0.6
		c1.3,0,2.3,0.2,3.3,0.7c0.9,0.5,1.7,1.1,2.3,2c0.6,0.8,1,1.8,1.3,2.8c0.3,1,0.4,2.1,0.3,3.3h-10.6
		C119.4,15.3,119.8,16.2,120.4,16.8z M124.9,9.1c-0.5-0.5-1.2-0.8-2.2-0.8c-0.6,0-1.2,0.1-1.6,0.3c-0.4,0.2-0.8,0.5-1,0.8
		c-0.3,0.3-0.4,0.7-0.5,1c-0.1,0.4-0.2,0.7-0.2,1h6.6C125.8,10.4,125.4,9.6,124.9,9.1z"/>
	<path id="XMLID_37_" class="st3" d="M134.6,5.6v2h0.1c0.5-0.9,1.2-1.5,2-1.9c0.8-0.4,1.7-0.6,2.5-0.6c1.1,0,2,0.1,2.7,0.4
		c0.7,0.3,1.2,0.7,1.6,1.2c0.4,0.5,0.7,1.2,0.8,1.9c0.2,0.7,0.2,1.6,0.2,2.5v9.1h-4V12c0-1.2-0.2-2.1-0.6-2.7
		c-0.4-0.6-1.1-0.9-2-0.9c-1.1,0-1.9,0.3-2.4,1c-0.5,0.7-0.7,1.7-0.7,3.2v7.7h-4V5.6H134.6z"/>
	<path id="XMLID_35_" class="st3" d="M149,16.7c0.2,0.3,0.4,0.6,0.7,0.8c0.3,0.2,0.6,0.3,1,0.4c0.4,0.1,0.8,0.1,1.2,0.1
		c0.3,0,0.6,0,0.9-0.1c0.3-0.1,0.6-0.2,0.9-0.3c0.3-0.1,0.5-0.3,0.6-0.6c0.2-0.2,0.3-0.5,0.3-0.9c0-0.6-0.4-1.1-1.2-1.4
		c-0.8-0.3-1.9-0.6-3.4-0.9c-0.6-0.1-1.2-0.3-1.7-0.5c-0.6-0.2-1.1-0.4-1.5-0.7c-0.4-0.3-0.8-0.7-1.1-1.1c-0.3-0.4-0.4-1-0.4-1.6
		c0-1,0.2-1.7,0.6-2.3c0.4-0.6,0.9-1.1,1.5-1.4c0.6-0.4,1.3-0.6,2.1-0.7c0.8-0.1,1.5-0.2,2.3-0.2c0.8,0,1.6,0.1,2.3,0.2
		c0.8,0.2,1.4,0.4,2,0.8c0.6,0.4,1.1,0.8,1.5,1.4c0.4,0.6,0.6,1.4,0.7,2.3h-3.8c-0.1-0.8-0.4-1.3-0.9-1.6c-0.5-0.3-1.2-0.4-1.9-0.4
		c-0.2,0-0.5,0-0.7,0c-0.3,0-0.5,0.1-0.7,0.2c-0.2,0.1-0.4,0.2-0.6,0.4c-0.2,0.2-0.2,0.4-0.2,0.7c0,0.4,0.1,0.7,0.4,0.9
		c0.3,0.2,0.6,0.4,1,0.6c0.4,0.1,0.9,0.3,1.5,0.4c0.6,0.1,1.1,0.2,1.7,0.4c0.6,0.1,1.2,0.3,1.7,0.5c0.6,0.2,1.1,0.4,1.5,0.8
		c0.4,0.3,0.8,0.7,1.1,1.2c0.3,0.5,0.4,1,0.4,1.7c0,1-0.2,1.8-0.6,2.4c-0.4,0.7-0.9,1.2-1.5,1.6c-0.6,0.4-1.3,0.7-2.2,0.8
		c-0.8,0.2-1.6,0.2-2.5,0.2c-0.9,0-1.7-0.1-2.5-0.3c-0.8-0.2-1.5-0.5-2.2-0.9c-0.6-0.4-1.2-0.9-1.6-1.6c-0.4-0.7-0.6-1.5-0.7-2.5
		h3.8C148.7,16,148.8,16.4,149,16.7z"/>
	<path id="XMLID_32_" class="st3" d="M158.9,3.3V0h4v3.3H158.9z M163,5.6v14.7h-4V5.6H163z"/>
	<path id="XMLID_30_" class="st3" d="M163.5,8.3V5.6h2.4V4.5c0-1.3,0.4-2.4,1.2-3.2c0.8-0.8,2.1-1.3,3.7-1.3c0.4,0,0.7,0,1.1,0
		c0.4,0,0.7,0.1,1.1,0.1v3c-0.5-0.1-1-0.1-1.5-0.1c-0.6,0-0.9,0.1-1.2,0.4c-0.2,0.3-0.4,0.7-0.4,1.3v0.9h2.8v2.7H170v12h-4v-12
		H163.5z"/>
	<path id="XMLID_28_" class="st3" d="M178.8,24.7c-0.8,0.5-1.9,0.8-3.3,0.8c-0.4,0-0.8,0-1.2,0c-0.4,0-0.8-0.1-1.2-0.1V22
		c0.4,0,0.8,0.1,1.2,0.1c0.4,0,0.8,0,1.2,0c0.5-0.1,0.9-0.3,1.2-0.6c0.3-0.4,0.4-0.8,0.4-1.2c0-0.3-0.1-0.6-0.2-0.9l-5.2-13.8h4.3
		l3.3,10.1h0.1l3.2-10.1h4.2l-6.2,16.6C180.2,23.4,179.6,24.2,178.8,24.7z"/>
</g>
<g id="XMLID_77_">
	<path id="XMLID_78_" class="st3" d="M62.6,3.1c0.9-0.9,2.4,0.5,1.4,1.5l-4,4l2.2,8.9l-1.5,1.5L57,11.6l-3,3l0.3,2.3L53.2,18
		l-1.4-2.6L49.2,14l1.2-1.2l2.3,0.3l3-3l-7.4-3.7L49.7,5l8.8,2.1L62.6,3.1z"/>
</g>
<g id="XMLID_72_">
	<g id="XMLID_75_">
		<path id="XMLID_76_" class="st4" d="M32.9,7.7c0,0.6-0.5,1.2-1.2,1.2v9.4c0,1.3-1.8,1.3-1.8,0V8.9c-0.6,0-1.2-0.5-1.2-1.2V2.5
			c0-0.4,0.7-0.5,0.7,0v3.8h0.5V2.5c0-0.4,0.6-0.4,0.6,0v3.8h0.6V2.5c0-0.4,0.6-0.4,0.6,0v3.8h0.6V2.5c0-0.4,0.6-0.4,0.6,0V7.7z"/>
	</g>
	<g id="XMLID_73_">
		<path id="XMLID_74_" class="st4" d="M37.8,3.7v14.6c0,1.3-1.8,1.3-1.8,0v-5.8h-1V3.7C35,1.6,37.8,1.6,37.8,3.7z"/>
	</g>
</g>
<path id="XMLID_67_" class="st4" d="M17.6,9l-1.4-3.6c-0.3-0.7-0.8-1.3-1.9-1.3h-2h0V3c0-0.2-0.2-0.4-0.3-0.4H9.2
	C9,2.6,8.9,2.8,8.9,3v1.1h-2C5.8,4.1,5.2,4.7,5,5.4L3.5,9C3,9.1,2,9.7,2,11v4.6h1.4v1.5c0,1.8,2.6,1.8,2.6,0v-1.5h4.6l0,0h0h4.6v1.5
	c0,1.8,2.6,1.8,2.6,0v-1.5h1.4V11C19.1,9.7,18.1,9.1,17.6,9z M4.7,12.8c-0.7,0-1.2-0.5-1.2-1.2c0-0.7,0.5-1.2,1.2-1.2
	c0.7,0,1.2,0.6,1.2,1.2C5.9,12.3,5.4,12.8,4.7,12.8z M10.6,9L10.6,9L10.6,9H5l1.1-2.9c0.1-0.4,0.3-0.7,0.8-0.7h3.7l0,0h0h3.7
	c0.5,0,0.7,0.3,0.8,0.7L16.1,9H10.6z M16.4,12.8c-0.7,0-1.2-0.5-1.2-1.2c0-0.7,0.5-1.2,1.2-1.2c0.7,0,1.2,0.6,1.2,1.2
	C17.6,12.3,17.1,12.8,16.4,12.8z"/>
</svg>
